<svg width="14" height="12" viewBox="0 0 14 12" fill="none" xmlns="http://www.w3.org/2000/svg">
<path fill-rule="evenodd" clip-rule="evenodd" d="M0.646894 4.64689C0.69334 4.60033 0.748515 4.56339 0.80926 4.53818C0.870005 4.51297 0.935127 4.5 1.00089 4.5C1.06666 4.5 1.13178 4.51297 1.19253 4.53818C1.25327 4.56339 1.30845 4.60033 1.35489 4.64689L7.00089 10.2939L12.6469 4.64689C12.7408 4.55301 12.8681 4.50026 13.0009 4.50026C13.1337 4.50026 13.261 4.55301 13.3549 4.64689C13.4488 4.74078 13.5015 4.86812 13.5015 5.00089C13.5015 5.13367 13.4488 5.26101 13.3549 5.35489L7.35489 11.3549C7.30845 11.4015 7.25327 11.4384 7.19253 11.4636C7.13178 11.4888 7.06666 11.5018 7.00089 11.5018C6.93513 11.5018 6.87001 11.4888 6.80926 11.4636C6.74852 11.4384 6.69334 11.4015 6.64689 11.3549L0.646894 5.35489C0.600331 5.30845 0.563388 5.25327 0.538181 5.19253C0.512975 5.13178 0.5 5.06666 0.5 5.00089C0.5 4.93513 0.512975 4.87001 0.538181 4.80926C0.563388 4.74851 0.600331 4.69334 0.646894 4.64689V4.64689Z" fill="#E6ECF0"/>
<path fill-rule="evenodd" clip-rule="evenodd" d="M0.646894 0.646894C0.69334 0.60033 0.748515 0.563388 0.80926 0.538181C0.870005 0.512975 0.935127 0.5 1.00089 0.5C1.06666 0.5 1.13178 0.512975 1.19253 0.538181C1.25327 0.563388 1.30845 0.60033 1.35489 0.646894L7.00089 6.29389L12.6469 0.646894C12.6934 0.600406 12.7486 0.56353 12.8093 0.538371C12.87 0.513212 12.9351 0.500262 13.0009 0.500262C13.0666 0.500262 13.1317 0.513212 13.1925 0.538371C13.2532 0.56353 13.3084 0.600406 13.3549 0.646894C13.4014 0.693382 13.4383 0.748571 13.4634 0.80931C13.4886 0.87005 13.5015 0.93515 13.5015 1.00089C13.5015 1.06664 13.4886 1.13174 13.4634 1.19248C13.4383 1.25322 13.4014 1.30841 13.3549 1.35489L7.35489 7.35489C7.30845 7.40146 7.25327 7.4384 7.19253 7.46361C7.13178 7.48881 7.06666 7.50179 7.00089 7.50179C6.93513 7.50179 6.87001 7.48881 6.80926 7.46361C6.74852 7.4384 6.69334 7.40146 6.64689 7.35489L0.646894 1.35489C0.600331 1.30845 0.563388 1.25327 0.538181 1.19253C0.512975 1.13178 0.5 1.06666 0.5 1.00089C0.5 0.935127 0.512975 0.870005 0.538181 0.80926C0.563388 0.748515 0.600331 0.693339 0.646894 0.646894V0.646894Z" fill="#E6ECF0"/>
</svg>
