<svg width="20" height="20" viewBox="0 0 20 20" fill="none" xmlns="http://www.w3.org/2000/svg">
<g opacity="0.8">
<path d="M7.344 8.44C7.38667 8.43467 7.45333 8.432 7.544 8.432H7.752C8.10933 8.432 8.45867 8.45867 8.8 8.512C8.976 8.53867 9.112 8.56533 9.208 8.592V9.736C9.128 9.73067 8.99467 9.71733 8.808 9.696C8.55733 9.66933 8.33867 9.656 8.152 9.656C7.944 9.656 7.776 9.664 7.648 9.68C7.52533 9.69067 7.424 9.712 7.344 9.744V8.44ZM7.752 14.064C7.21867 14.064 6.79467 14.0187 6.48 13.928C6.17067 13.832 5.936 13.6747 5.776 13.456C5.62133 13.248 5.51467 12.9733 5.456 12.632C5.40267 12.2853 5.376 11.824 5.376 11.248C5.376 10.7413 5.39467 10.3307 5.432 10.016C5.47467 9.70133 5.54933 9.43733 5.656 9.224C5.768 9.00533 5.93067 8.83733 6.144 8.72C6.36267 8.59733 6.65067 8.51467 7.008 8.472V11.248C7.008 11.5467 7.01333 11.8347 7.024 12.112C7.03467 12.3253 7.07467 12.4853 7.144 12.592C7.21867 12.6987 7.33333 12.7653 7.488 12.792C7.63733 12.824 7.85867 12.84 8.152 12.84C8.456 12.84 8.71467 12.8267 8.928 12.8C9.01333 12.7947 9.11733 12.7813 9.24 12.76V13.92C8.97867 13.9787 8.68267 14.0187 8.352 14.04C8.17067 14.056 7.97067 14.064 7.752 14.064ZM11.1469 13.768C11.0775 13.5547 11.0162 13.3467 10.9629 13.144L10.7069 12.264C10.6215 11.976 10.5549 11.76 10.5069 11.616C10.4642 11.456 10.4295 11.336 10.4029 11.256L9.58688 8.496H11.2189L12.7149 14H11.2189L11.1469 13.768ZM12.4029 11.56L13.2109 8.496H14.8109L13.9949 11.256L13.6989 12.264C13.6029 12.5733 13.5149 12.8667 13.4349 13.144C13.3815 13.3467 13.3202 13.5547 13.2509 13.768L13.1789 14H13.0669L12.4029 11.56Z" fill="#E6ECF0"/>
<path d="M7.344 8.44L7.21997 7.44772L6.344 7.55722V8.44H7.344ZM8.8 8.512L8.64562 9.50002L8.65019 9.50072L8.8 8.512ZM9.208 8.592H10.208V7.83191L9.47564 7.62848L9.208 8.592ZM9.208 9.736L9.14148 10.7338L10.208 10.8049V9.736H9.208ZM8.808 9.696L8.92155 8.70244L8.91379 8.70161L8.808 9.696ZM7.648 9.68L7.73463 10.6762L7.75337 10.6746L7.77204 10.6723L7.648 9.68ZM7.344 9.744H6.344V11.221L7.71539 10.6725L7.344 9.744ZM6.48 13.928L6.1836 14.8831L6.19333 14.8861L6.20313 14.8889L6.48 13.928ZM5.776 13.456L6.58305 12.8655L6.57846 12.8593L5.776 13.456ZM5.456 12.632L4.46763 12.7841L4.46896 12.7927L4.47045 12.8014L5.456 12.632ZM5.432 10.016L4.44107 9.88164L4.43995 9.8899L4.43896 9.89818L5.432 10.016ZM5.656 9.224L4.76591 8.7681L4.76157 8.77679L5.656 9.224ZM6.144 8.72L6.62594 9.59625L6.63325 9.59214L6.144 8.72ZM7.008 8.472H8.008V7.34549L6.88944 7.47905L7.008 8.472ZM7.024 12.112L6.02467 12.1504L6.02525 12.1619L7.024 12.112ZM7.144 12.592L6.30556 13.137L6.31492 13.1514L6.32477 13.1655L7.144 12.592ZM7.488 12.792L7.69753 11.8142L7.6778 11.81L7.65791 11.8065L7.488 12.792ZM8.928 12.8L8.86562 11.8019L8.8347 11.8039L8.80397 11.8077L8.928 12.8ZM9.24 12.76H10.24V11.5711L9.06866 11.7748L9.24 12.76ZM9.24 13.92L9.45904 14.8957L10.24 14.7204V13.92H9.24ZM8.352 14.04L8.28762 13.0421L8.27585 13.0428L8.26411 13.0439L8.352 14.04ZM7.46803 9.43228C7.45787 9.43355 7.4525 9.43391 7.45347 9.43383C7.4541 9.43379 7.45805 9.43352 7.46597 9.4332C7.48224 9.43255 7.50763 9.432 7.544 9.432V7.432C7.44681 7.432 7.32796 7.43422 7.21997 7.44772L7.46803 9.43228ZM7.544 9.432H7.752V7.432H7.544V9.432ZM7.752 9.432C8.05941 9.432 8.35708 9.45493 8.64562 9.50001L8.95438 7.52399C8.56026 7.46241 8.15926 7.432 7.752 7.432V9.432ZM8.65019 9.50072C8.81212 9.52525 8.90193 9.54484 8.94036 9.55552L9.47564 7.62848C9.32207 7.58582 9.13988 7.55208 8.94981 7.52328L8.65019 9.50072ZM8.208 8.592V9.736H10.208V8.592H8.208ZM9.27452 8.73821C9.22032 8.7346 9.10767 8.72374 8.92155 8.70247L8.69445 10.6895C8.88166 10.7109 9.03568 10.7267 9.14148 10.7338L9.27452 8.73821ZM8.91379 8.70161C8.63926 8.67241 8.38377 8.656 8.152 8.656V10.656C8.29356 10.656 8.4754 10.6663 8.70221 10.6904L8.91379 8.70161ZM8.152 8.656C7.92432 8.656 7.71019 8.66444 7.52396 8.68772L7.77204 10.6723C7.84181 10.6636 7.96368 10.656 8.152 10.656V8.656ZM7.56137 8.68376C7.37915 8.6996 7.1735 8.73517 6.97261 8.81552L7.71539 10.6725C7.70351 10.6772 7.69485 10.68 7.69017 10.6814C7.68546 10.6827 7.68391 10.683 7.68601 10.6825C7.69075 10.6816 7.70616 10.6787 7.73463 10.6762L7.56137 8.68376ZM8.344 9.744V8.44H6.344V9.744H8.344ZM7.752 13.064C7.26146 13.064 6.94309 13.0207 6.75687 12.9671L6.20313 14.8889C6.64625 15.0166 7.17588 15.064 7.752 15.064V13.064ZM6.7764 12.9729C6.63081 12.9278 6.59305 12.8792 6.58303 12.8655L4.96897 14.0465C5.27895 14.4701 5.71052 14.7362 6.1836 14.8831L6.7764 12.9729ZM6.57846 12.8593C6.54364 12.8125 6.48216 12.6989 6.44155 12.4626L4.47045 12.8014C4.54718 13.2478 4.69903 13.6835 4.97354 14.0527L6.57846 12.8593ZM6.44437 12.4799C6.4021 12.2052 6.376 11.801 6.376 11.248H4.376C4.376 11.847 4.40323 12.3655 4.46763 12.7841L6.44437 12.4799ZM6.376 11.248C6.376 10.7604 6.39424 10.3934 6.42504 10.1338L4.43896 9.89818C4.3951 10.2679 4.376 10.7222 4.376 11.248H6.376ZM6.42293 10.1504C6.45542 9.91075 6.50614 9.7598 6.55043 9.67121L4.76157 8.77679C4.59253 9.11487 4.49391 9.49191 4.44107 9.88164L6.42293 10.1504ZM6.54604 9.67988C6.5679 9.6372 6.58923 9.6164 6.62592 9.59622L5.66208 7.84378C5.2721 8.05827 4.9681 8.37346 4.76596 8.76812L6.54604 9.67988ZM6.63325 9.59214C6.69914 9.55518 6.84731 9.49829 7.12656 9.46495L6.88944 7.47905C6.45402 7.53104 6.02619 7.63949 5.65475 7.84786L6.63325 9.59214ZM6.008 8.472V11.248H8.008V8.472H6.008ZM6.008 11.248C6.008 11.5585 6.01354 11.8594 6.02474 12.1504L8.02326 12.0736C8.01312 11.81 8.008 11.5348 8.008 11.248H6.008ZM6.02525 12.1619C6.03943 12.4457 6.09525 12.8134 6.30556 13.137L7.98244 12.047C8.00329 12.0791 8.01578 12.1056 8.02275 12.1226C8.0297 12.1396 8.03212 12.1494 8.03214 12.1495C8.03219 12.1497 8.03049 12.1428 8.02842 12.1275C8.02635 12.1123 8.02419 12.0908 8.02275 12.0621L6.02525 12.1619ZM6.32477 13.1655C6.58292 13.5343 6.95847 13.7155 7.31809 13.7775L7.65791 11.8065C7.67679 11.8098 7.72619 11.8212 7.78862 11.8575C7.85426 11.8957 7.9158 11.9508 7.96323 12.0185L6.32477 13.1655ZM7.27847 13.7698C7.53353 13.8245 7.84004 13.84 8.152 13.84V11.84C7.87729 11.84 7.74113 11.8235 7.69753 11.8142L7.27847 13.7698ZM8.152 13.84C8.48198 13.84 8.78462 13.8257 9.05203 13.7923L8.80397 11.8077C8.64472 11.8276 8.43002 11.84 8.152 11.84V13.84ZM8.99038 13.7981C9.12458 13.7897 9.26729 13.7703 9.41134 13.7452L9.06866 11.7748C8.96738 11.7924 8.90209 11.7997 8.86562 11.8019L8.99038 13.7981ZM8.24 12.76V13.92H10.24V12.76H8.24ZM9.02096 12.9443C8.82079 12.9892 8.57791 13.0233 8.28762 13.0421L8.41638 15.0379C8.78743 15.014 9.13655 14.9681 9.45904 14.8957L9.02096 12.9443ZM8.26411 13.0439C8.11711 13.0568 7.94694 13.064 7.752 13.064V15.064C7.99439 15.064 8.22423 15.0552 8.43989 15.0361L8.26411 13.0439ZM11.1469 13.768L12.102 13.4716L12.0979 13.4589L11.1469 13.768ZM10.9629 13.144L11.9299 12.8895L11.9267 12.877L11.9231 12.8647L10.9629 13.144ZM10.7069 12.264L11.6671 11.9847L11.6657 11.9799L10.7069 12.264ZM10.5069 11.616L9.54064 11.8737L9.54852 11.9032L9.55819 11.9322L10.5069 11.616ZM10.4029 11.256L9.44391 11.5395L9.44877 11.556L9.45419 11.5722L10.4029 11.256ZM9.58688 8.496V7.496H8.24843L8.62791 8.77952L9.58688 8.496ZM11.2189 8.496L12.1839 8.23371L11.9834 7.496H11.2189V8.496ZM12.7149 14V15H14.023L13.6799 13.7377L12.7149 14ZM11.2189 14L10.2638 14.2964L10.4822 15H11.2189V14ZM12.4029 11.56L11.4359 11.305L11.3676 11.5641L11.438 11.8226L12.4029 11.56ZM13.2109 8.496V7.496H12.4404L12.2439 8.24101L13.2109 8.496ZM14.8109 8.496L15.7698 8.77952L16.1493 7.496H14.8109V8.496ZM13.9949 11.256L13.0359 10.9725L13.0354 10.9742L13.9949 11.256ZM13.6989 12.264L14.6539 12.5604L14.6562 12.5531L14.6584 12.5458L13.6989 12.264ZM13.4349 13.144L12.4741 12.8668L12.4708 12.8781L12.4678 12.8895L13.4349 13.144ZM13.2509 13.768L12.2998 13.4589L12.2958 13.4716L13.2509 13.768ZM13.1789 14V15H13.9156L14.1339 14.2964L13.1789 14ZM13.0669 14L12.102 14.2626L12.3026 15H13.0669V14ZM12.0979 13.4589C12.034 13.2624 11.9781 13.0726 11.9299 12.8895L9.9958 13.3985C10.0543 13.6207 10.121 13.847 10.1958 14.0771L12.0979 13.4589ZM11.9231 12.8647L11.6671 11.9847L9.74668 12.5433L10.0027 13.4233L11.9231 12.8647ZM11.6657 11.9799C11.5796 11.6894 11.5091 11.4603 11.4556 11.2998L9.55819 11.9322C9.60069 12.0597 9.66349 12.2626 9.74808 12.5481L11.6657 11.9799ZM11.4731 11.3583C11.4292 11.1935 11.3882 11.0496 11.3516 10.9398L9.45419 11.5722C9.4709 11.6224 9.49925 11.7185 9.54064 11.8737L11.4731 11.3583ZM11.3618 10.9725L10.5458 8.21248L8.62791 8.77952L9.44391 11.5395L11.3618 10.9725ZM9.58688 9.496H11.2189V7.496H9.58688V9.496ZM10.2539 8.75829L11.7499 14.2623L13.6799 13.7377L12.1839 8.23371L10.2539 8.75829ZM12.7149 13H11.2189V15H12.7149V13ZM12.1739 13.7036L12.1019 13.4716L10.1918 14.0644L10.2638 14.2964L12.1739 13.7036ZM13.3698 11.815L14.1778 8.75099L12.2439 8.24101L11.4359 11.305L13.3698 11.815ZM13.2109 9.496H14.8109V7.496H13.2109V9.496ZM13.8519 8.21248L13.0359 10.9725L14.9538 11.5395L15.7698 8.77952L13.8519 8.21248ZM13.0354 10.9742L12.7394 11.9822L14.6584 12.5458L14.9544 11.5378L13.0354 10.9742ZM12.7438 11.9676C12.6461 12.2826 12.5561 12.5824 12.4741 12.8668L14.3957 13.4212C14.4736 13.151 14.5597 12.8641 14.6539 12.5604L12.7438 11.9676ZM12.4678 12.8895C12.4196 13.0726 12.3637 13.2624 12.2998 13.4589L14.2019 14.0771C14.2767 13.847 14.3435 13.6207 14.4019 13.3985L12.4678 12.8895ZM12.2958 13.4716L12.2238 13.7036L14.1339 14.2964L14.2059 14.0644L12.2958 13.4716ZM13.1789 13H13.0669V15H13.1789V13ZM14.0318 13.7374L13.3678 11.2974L11.438 11.8226L12.102 14.2626L14.0318 13.7374Z" fill="#E6ECF0"/>
</g>
<rect x="0.5" y="0.5" width="19" height="19" stroke="#E6ECF0"/>
</svg>
